<?xml version="1.0" encoding="UTF-8"?>
<svg width="100px" height="78px" viewBox="0 0 100 78" version="1.1" xmlns="http://www.w3.org/2000/svg" xmlns:xlink="http://www.w3.org/1999/xlink">
    <!-- Generator: Sketch 46.2 (44496) - http://www.bohemiancoding.com/sketch -->
    <title>basket</title>
    <desc>Created with Sketch.</desc>
    <defs></defs>
    <g id="Page-1" stroke="none" stroke-width="1" fill="none" fill-rule="evenodd">
        <g id="noun_1234529_cc" fill-rule="nonzero" fill="#FFFFFF">
            <path d="M95.06,25.13 L85.48,25.13 L67.63,2.52 C66.2492881,0.785825953 63.7241741,0.499288232 61.9900001,1.88000008 C60.255826,3.26071193 59.9692882,5.78582588 61.35,7.52 L75.29,25.13 L25.9,25.13 L39.83,7.47 C40.723164,6.34818605 40.9500009,4.8350899 40.4250635,3.50068023 C39.9001261,2.16627056 38.7031649,1.21327595 37.2850635,1.00068023 C35.8669621,0.788084516 34.443164,1.34818605 33.55,2.47 L15.71,25.13 L4.94,25.13 C2.730861,25.13 0.94,26.920861 0.94,29.13 C0.94,31.339139 2.730861,33.13 4.94,33.13 L8.56,33.13 L13.98,66.13 C15.0220304,72.4038668 20.4501867,77.0027802 26.81,77 L73.19,77 C79.5486638,76.9913794 84.9679448,72.3843559 86,66.11 L91.42,33.11 L95.04,33.11 C97.249139,33.11 99.04,31.319139 99.04,29.11 C99.04,26.900861 97.249139,25.11 95.04,25.11 L95.06,25.13 Z M78.12,64.82 C77.7191694,67.2309982 75.6340901,68.9988748 73.19,69 L26.81,69 C24.3627017,68.9980647 22.2764617,67.2249722 21.88,64.81 L16.67,33.13 L83.33,33.13 L78.12,64.82 Z" id="Shape"></path>
        </g>
    </g>
</svg>