<?xml version="1.0" encoding="UTF-8"?>
<svg width="74px" height="74px" viewBox="0 0 74 74" version="1.1" xmlns="http://www.w3.org/2000/svg" xmlns:xlink="http://www.w3.org/1999/xlink">
    <!-- Generator: Sketch 46.2 (44496) - http://www.bohemiancoding.com/sketch -->
    <title>Untitled</title>
    <desc>Created with Sketch.</desc>
    <defs></defs>
    <g id="Page-1" stroke="none" stroke-width="1" fill="none" fill-rule="evenodd">
        <g id="noun_1166840_cc" fill-rule="nonzero" fill="#FFFFFF">
            <path d="M50.8,31.5 L6,31.5 C3,31.5 0.5,34 0.5,37 L0.5,37 C0.5,40 3,42.5 6,42.5 L50.9,42.5 C53.9,42.5 56.4,40 56.4,37 L56.4,37 C56.3,33.9 53.9,31.5 50.8,31.5 Z" id="Shape"></path>
            <path d="M68.3,0 L6,0 C3,0 0.5,2.5 0.5,5.5 L0.5,5.5 C0.5,8.5 3,11 6,11 L68.4,11 C71.4,11 73.9,8.5 73.9,5.5 L73.9,5.5 C73.8,2.5 71.4,0 68.3,0 Z" id="Shape"></path>
            <path d="M68.3,62.9 L6,62.9 C3,62.9 0.5,65.4 0.5,68.4 L0.5,68.4 C0.5,71.4 3,73.9 6,73.9 L68.4,73.9 C71.4,73.9 73.9,71.4 73.9,68.4 L73.9,68.4 C73.8,65.4 71.4,62.9 68.3,62.9 Z" id="Shape"></path>
        </g>
    </g>
</svg>